<?xml version="1.0" standalone="no"?>
<!DOCTYPE svg PUBLIC "-//W3C//DTD SVG 20010904//EN"
 "http://www.w3.org/TR/2001/REC-SVG-20010904/DTD/svg10.dtd">
<svg version="1.0" xmlns="http://www.w3.org/2000/svg"
 width="512.000000pt" height="512.000000pt" viewBox="0 0 512.000000 512.000000"
 preserveAspectRatio="xMidYMid meet">
<metadata>
Created by potrace 1.14, written by Peter Selinger 2001-2017
</metadata>
<g transform="translate(0.000000,512.000000) scale(0.100000,-0.100000)"
fill="#000000" stroke="none">
<path d="M35 5103 c2 -10 4 -20 5 -23 1 -3 3 -9 4 -15 1 -5 8 -23 15 -40 7
-16 10 -37 8 -47 -3 -11 0 -18 8 -18 33 0 22 -22 -22 -42 -52 -25 -70 -58 -33
-58 19 0 20 -2 10 -15 -11 -13 -6 -15 36 -16 27 0 69 -4 94 -8 l45 -7 -37 -7
c-40 -8 -61 -27 -31 -27 33 0 96 -21 87 -30 -5 -4 -46 -20 -92 -35 -46 -15
-81 -29 -78 -32 2 -3 37 1 75 8 39 7 74 9 77 6 4 -3 -4 -22 -16 -41 -28 -46
-8 -47 34 -2 33 36 86 73 86 61 0 -18 -46 -83 -83 -116 -22 -21 -34 -39 -28
-43 5 -4 8 -13 5 -20 -4 -9 11 -24 41 -41 38 -23 45 -31 39 -49 -3 -11 -10
-25 -15 -30 -5 -6 -9 -20 -9 -32 0 -18 11 -27 58 -44 31 -12 86 -26 122 -30
36 -5 84 -13 107 -18 23 -5 53 -7 68 -5 33 7 92 -16 216 -84 56 -31 127 -62
158 -70 87 -23 121 -48 121 -88 0 -42 -6 -47 -444 -384 -39 -30 -130 -102
-203 -160 -73 -58 -206 -164 -297 -236 l-165 -130 -1 -709 c0 -566 3 -706 12
-698 7 5 41 21 75 35 35 14 118 67 195 124 73 55 162 119 198 143 36 24 92 65
125 90 92 72 379 251 557 349 61 33 78 47 83 70 8 36 56 82 121 114 27 14 69
42 93 61 24 20 48 36 53 36 7 0 8 12 3 33 -4 17 -6 49 -6 69 1 20 -3 39 -8 42
-14 9 10 78 34 98 21 17 102 27 292 33 102 3 111 2 105 -13 -5 -15 -4 -15 12
0 14 15 21 16 39 6 20 -10 21 -10 9 5 -12 14 -9 15 25 12 20 -2 42 -1 47 3 6
3 22 7 35 8 14 2 27 8 29 14 2 5 14 10 26 10 12 0 31 10 42 23 32 37 66 87 68
101 2 18 52 76 65 76 5 0 16 9 23 19 8 11 27 25 43 33 16 7 58 41 93 76 35 34
67 62 71 62 4 0 16 -8 27 -18 10 -10 39 -24 64 -32 25 -7 50 -16 55 -19 6 -3
12 -6 15 -7 3 -1 24 -9 48 -19 30 -13 39 -21 30 -27 -9 -6 -6 -8 8 -6 12 2 31
-6 43 -16 12 -11 21 -16 21 -12 0 4 6 1 14 -6 9 -9 11 -17 4 -25 -7 -9 -3 -11
18 -7 25 5 26 3 13 -12 -9 -12 -10 -15 -1 -10 6 4 12 2 12 -4 0 -6 34 -27 76
-47 l76 -37 -48 -13 c-27 -7 -80 -23 -119 -35 -64 -20 -67 -22 -40 -28 17 -3
59 -1 95 6 111 20 146 13 192 -41 20 -23 68 -117 68 -132 0 -5 8 -17 18 -26
19 -18 37 -23 28 -9 -3 5 10 4 29 -2 19 -6 35 -14 35 -18 0 -5 8 -8 18 -8 9 0
26 -7 36 -15 11 -8 34 -15 51 -15 17 0 36 -5 41 -10 10 -10 32 -17 87 -27 15
-3 27 -8 27 -12 0 -3 19 -6 43 -6 48 -1 69 -6 79 -20 4 -5 24 -11 45 -11 21
-1 90 -5 153 -9 95 -7 117 -11 128 -27 8 -10 19 -17 25 -16 7 1 23 -4 35 -11
13 -7 57 -13 98 -14 41 -1 74 -5 74 -9 0 -4 -15 -8 -34 -8 -19 0 -38 -5 -42
-11 -3 -6 -17 -9 -30 -6 -13 2 -24 0 -24 -4 0 -5 -7 -9 -16 -9 -9 0 -39 -14
-66 -30 -42 -26 -56 -30 -92 -25 -36 6 -47 3 -73 -19 -17 -14 -38 -26 -46 -26
-9 0 -18 -4 -22 -9 -3 -6 32 -9 87 -9 109 2 130 -4 149 -38 11 -21 18 -25 41
-20 15 3 28 3 28 0 0 -12 -30 -34 -47 -34 -15 0 -16 -2 -3 -10 11 -7 5 -10
-25 -10 -22 0 -47 -5 -55 -10 -10 -7 -3 -8 25 -5 l40 5 -40 -14 c-22 -8 -51
-15 -65 -16 -23 -2 -23 -3 5 -9 29 -7 29 -7 -15 -16 -41 -8 -43 -9 -15 -13
l30 -4 -34 -14 c-18 -8 -38 -14 -45 -13 -6 0 -2 4 9 8 15 6 7 10 -32 15 -50 6
-66 19 -67 56 -1 10 -19 19 -56 26 -102 21 -102 16 1 120 52 52 91 94 89 94
-20 0 -157 -33 -174 -42 -11 -6 -46 -11 -78 -12 -32 0 -53 -3 -47 -7 21 -13
-398 -122 -511 -133 -59 -5 -63 -3 -21 10 8 2 11 7 9 10 -3 3 -31 -2 -63 -11
-31 -9 -59 -15 -61 -12 -3 2 17 10 43 16 52 14 76 28 67 42 -3 5 0 9 5 9 6 0
11 -6 11 -12 1 -35 15 -40 77 -24 34 9 74 16 89 16 16 0 36 5 44 10 11 7 0 9
-36 4 -37 -4 -54 -3 -59 7 -6 8 -4 11 7 7 8 -4 30 -2 49 2 34 9 34 9 4 8 -16
0 -34 1 -40 2 -5 1 -21 2 -35 3 -23 0 -23 0 -2 4 14 3 22 12 22 24 0 16 -5 18
-27 14 -65 -14 -78 -15 -63 -6 8 4 32 11 53 15 56 10 47 30 -10 22 -27 -4 -61
-7 -76 -6 -16 0 -26 -4 -23 -8 7 -11 -76 -24 -101 -16 -15 5 -16 4 -3 -6 12
-9 7 -10 -25 -6 -30 4 -35 3 -20 -4 17 -9 15 -10 -11 -7 -30 3 -31 2 -21 -20
5 -13 17 -23 25 -23 31 0 3 -11 -47 -19 -55 -9 -81 3 -32 14 21 4 29 12 28 26
-1 10 -8 19 -17 19 -13 0 -13 1 0 10 20 13 17 13 -90 -10 -51 -11 -98 -20
-104 -20 -6 0 -4 -5 4 -10 11 -7 5 -8 -19 -3 -24 4 -32 3 -27 -5 4 -7 -6 -9
-31 -7 -33 4 -35 3 -13 -5 20 -8 16 -9 -20 -5 -32 4 -41 2 -30 -5 11 -7 6 -8
-19 -3 -27 5 -32 3 -26 -7 6 -10 4 -12 -10 -7 -10 4 -45 2 -79 -4 -65 -12 -84
-15 -131 -19 -28 -3 -27 -3 10 -10 37 -7 35 -7 -23 -9 -35 0 -61 -5 -58 -9 3
-5 -8 -7 -23 -4 -32 4 -52 -15 -30 -29 10 -6 5 -10 -18 -15 -18 -4 -30 -10
-27 -15 3 -5 1 -9 -5 -9 -6 0 -8 -6 -6 -12 2 -7 6 -29 9 -48 4 -29 3 -32 -7
-19 -10 13 -17 14 -37 6 -14 -5 -31 -10 -39 -11 -30 -2 -23 -26 8 -26 18 0 30
5 28 11 -1 6 5 14 13 16 13 4 13 3 0 -6 -12 -8 -8 -11 18 -11 17 0 32 -4 32
-10 0 -5 7 -10 15 -10 8 0 12 6 9 14 -4 10 12 15 63 20 37 4 73 12 80 18 8 6
31 8 58 5 25 -4 47 -2 50 3 3 6 25 8 48 5 31 -4 37 -3 22 4 -18 9 -17 10 8 10
15 1 27 -3 27 -9 0 -5 6 -7 14 -4 10 4 14 -1 13 -15 -1 -12 -5 -21 -10 -21 -4
0 -6 -4 -3 -9 3 -4 -7 -7 -22 -5 -15 2 -43 4 -63 5 -25 2 -35 7 -32 15 4 10
-3 11 -26 4 -19 -5 -31 -5 -31 1 0 5 -7 9 -15 9 -14 0 -20 -12 -16 -33 1 -4
-8 -3 -18 3 -13 7 -22 7 -26 0 -3 -5 -4 -10 -1 -10 3 0 -2 -8 -11 -18 -16 -16
-19 -16 -30 -3 -12 17 -7 35 8 25 5 -3 6 -10 3 -16 -4 -7 -2 -8 5 -4 9 6 9 11
-1 23 -11 13 -14 12 -31 -8 -18 -23 -19 -23 -33 -4 -8 10 -14 14 -14 8 0 -7 5
-15 10 -18 6 -4 8 -11 4 -16 -3 -6 -11 -6 -17 -1 -7 4 -18 7 -24 6 -7 -1 -17
-2 -23 -3 -5 0 -16 -14 -24 -29 -12 -23 -21 -28 -46 -27 -21 1 -28 -1 -20 -9
5 -5 10 -13 10 -16 0 -6 -92 -29 -194 -48 -22 -4 -41 -13 -43 -19 -2 -6 4 -10
14 -8 66 12 136 26 182 36 50 11 55 10 70 -8 17 -22 70 -43 107 -43 26 0 32
-14 11 -24 -6 -3 0 -4 15 -2 16 2 28 -1 28 -5 0 -5 7 -9 15 -9 9 0 15 7 13 16
-2 11 5 18 20 20 15 3 21 0 16 -7 -6 -11 37 -9 96 6 23 5 23 5 4 -4 -12 -5
-25 -15 -29 -21 -4 -7 6 -5 23 4 37 19 46 20 39 3 -4 -10 12 -11 72 -6 48 4
81 3 89 -4 10 -8 12 -7 10 3 -3 13 39 33 94 44 16 4 27 11 25 17 -1 6 9 15 23
20 23 8 24 8 6 -5 -10 -8 -15 -19 -12 -25 4 -6 -10 -13 -31 -17 -21 -4 -51
-13 -68 -20 -27 -11 -20 -13 62 -9 65 2 91 0 86 -8 -4 -7 0 -8 11 -4 10 4 23
7 29 7 9 0 9 2 1 8 -7 4 15 8 47 9 33 1 57 -2 54 -7 -4 -7 -59 -16 -150 -24
-43 -4 -175 -48 -175 -59 0 -4 10 -5 21 -2 12 4 27 8 33 9 6 1 17 5 24 10 7 4
56 9 110 10 60 2 86 0 67 -5 -99 -26 -174 -42 -205 -45 -41 -3 -109 -20 -117
-28 -4 -3 11 -6 33 -7 l39 -1 -35 -13 c-19 -7 -58 -14 -86 -14 -29 -1 -81 -12
-118 -26 -37 -14 -74 -25 -84 -25 -9 0 -33 -8 -52 -18 -19 -10 -57 -25 -85
-32 -27 -7 -59 -19 -70 -27 -11 -7 -35 -13 -55 -12 l-35 1 35 13 c48 19 10 19
-60 0 -42 -11 -56 -12 -62 -2 -5 8 10 16 49 25 74 16 79 23 15 21 -28 -1 -49
-6 -46 -11 3 -4 -1 -8 -9 -8 -17 0 -30 27 -61 132 -13 46 -53 175 -89 288 -36
113 -77 246 -91 295 -15 50 -38 120 -52 158 l-26 67 -46 0 c-68 0 -144 -38
-165 -83 -19 -39 -15 -70 23 -210 12 -43 19 -85 16 -93 -3 -8 -2 -13 3 -10 5
3 14 -16 21 -42 7 -26 36 -130 65 -232 29 -102 65 -230 80 -285 15 -55 41
-125 57 -155 16 -31 24 -56 18 -58 -29 -10 15 -107 67 -146 55 -41 143 -30
533 66 91 22 201 48 245 58 44 10 166 37 270 60 105 23 226 50 270 60 230 51
208 46 910 214 127 30 311 69 410 86 155 28 184 36 207 58 25 23 31 24 62 15
23 -7 51 -7 88 -1 63 12 196 5 293 -16 61 -13 71 -13 85 -1 9 8 24 15 33 15 9
0 17 4 17 10 0 5 18 19 40 30 l40 20 0 203 0 202 -38 65 c-54 92 -152 237
-152 224 0 -5 6 -16 13 -23 9 -11 9 -12 0 -7 -7 4 -17 16 -23 26 -9 17 -7 18
18 14 15 -3 59 -20 98 -39 39 -19 74 -35 78 -35 3 0 6 428 6 951 0 943 -1 951
-20 946 -11 -3 -20 -1 -20 4 0 5 9 9 20 9 18 0 20 7 20 70 0 56 -3 70 -15 70
-8 0 -15 -5 -15 -11 0 -6 -7 -8 -16 -5 -10 4 -18 -3 -25 -24 -9 -24 -14 -28
-28 -20 -10 5 -31 11 -47 13 -18 2 -30 10 -32 22 -3 10 0 15 7 11 6 -4 11 -3
11 3 0 5 -4 13 -10 16 -5 3 -8 18 -6 33 1 15 -4 34 -13 42 -9 8 -15 13 -14 12
3 -6 -50 -62 -57 -62 -11 0 -40 83 -40 115 0 17 -11 43 -24 60 l-24 30 -10
-25 c-17 -45 -39 -55 -116 -54 -51 1 -83 7 -113 22 -51 26 -56 34 -48 71 5 25
12 30 51 36 50 7 51 11 30 93 -8 28 -10 50 -5 46 5 -3 9 0 9 5 0 14 -448 15
-469 2 -11 -7 -12 -13 -3 -23 9 -11 6 -22 -15 -51 -25 -35 -25 -37 -8 -63 15
-23 15 -26 2 -21 -9 3 -17 1 -19 -5 -3 -8 -58 -1 -171 21 -92 17 -173 34 -181
37 -10 4 -27 -20 -57 -76 -24 -44 -55 -94 -69 -110 l-25 -30 -170 31 c-94 16
-186 28 -206 25 -19 -3 -51 -1 -70 5 -19 6 -86 14 -150 19 -162 11 -229 43
-229 109 0 30 -12 26 -37 -12 -45 -66 -60 -112 -99 -295 -4 -21 -5 -22 -30 -6
-13 9 -37 38 -52 63 -24 40 -27 56 -27 131 1 95 3 101 62 163 48 51 91 63 160
45 36 -9 47 -8 69 6 44 30 25 41 -76 44 l-92 3 -62 -59 c-57 -55 -65 -59 -132
-70 -78 -13 -144 -37 -144 -52 0 -6 -7 -10 -16 -10 -8 0 -12 -4 -9 -10 11 -18
75 -11 115 13 32 17 43 20 57 11 10 -7 17 -20 15 -30 -2 -11 -6 -48 -9 -84 -4
-57 -1 -72 24 -120 24 -47 36 -59 81 -80 l53 -25 -7 -48 c-4 -37 -2 -54 12
-75 15 -24 15 -25 1 -13 -11 9 -17 10 -17 2 0 -6 10 -19 21 -29 50 -40 50 -41
47 -125 l-3 -80 -56 -21 c-80 -30 -89 -40 -89 -98 0 -43 4 -54 31 -79 17 -16
38 -29 46 -29 12 0 12 -2 1 -13 -15 -15 -101 -30 -93 -17 3 5 1 11 -4 14 -5 4
-15 23 -21 44 -7 20 -20 44 -30 52 -17 14 -17 27 -9 169 5 85 7 156 4 159 -6
6 -23 -39 -42 -113 -8 -33 -20 -66 -27 -73 -10 -10 -90 -10 -424 0 -253 7
-412 15 -412 21 0 7 147 8 414 3 l414 -6 11 31 c10 28 15 78 9 79 -2 1 -93 3
-203 6 -110 3 -256 9 -325 14 -69 5 -136 7 -148 3 -25 -6 -53 12 -46 31 3 7
16 18 30 25 14 6 33 29 43 55 11 24 25 47 31 51 6 4 37 7 69 7 l58 0 13 172
c7 94 16 192 20 219 7 49 -5 142 -23 165 -8 10 -187 12 -856 12 -734 -1 -843
-3 -821 -15 34 -19 7 -19 -56 0 -69 21 -113 20 -109 -2z m4500 -70 c-9 -8 -19
-13 -22 -9 -9 8 18 37 28 30 5 -3 2 -12 -6 -21z m-4300 -18 l30 -14 -40 6
c-22 3 -49 9 -60 14 -17 6 -15 8 10 8 17 0 44 -6 60 -14z m4206 -48 c-16 -16
-26 0 -10 19 9 11 15 12 17 4 2 -6 -1 -17 -7 -23z m-1971 8 c0 -9 -9 -15 -25
-15 -24 0 -32 10 -18 23 12 13 43 7 43 -8z m2057 9 c-3 -3 -12 -4 -19 -1 -8 3
-5 6 6 6 11 1 17 -2 13 -5z m-4074 -71 c-7 -2 -19 -2 -25 0 -7 3 -2 5 12 5 14
0 19 -2 13 -5z m48 -21 c-7 -2 -18 1 -23 6 -8 8 -4 9 13 5 13 -4 18 -8 10 -11z
m4019 -108 c25 -12 38 -23 30 -24 -8 0 -33 10 -55 21 l-40 21 25 -27 25 -27
-30 8 c-16 4 -34 9 -38 11 -14 8 -28 55 -21 75 5 18 7 17 32 -7 15 -15 47 -38
72 -51z m-1305 46 c3 -5 1 -10 -4 -10 -6 0 -11 5 -11 10 0 6 2 10 4 10 3 0 8
-4 11 -10z m964 -115 c0 -5 -13 15 -29 45 -16 30 -29 60 -29 65 0 6 13 -15 29
-45 16 -30 29 -59 29 -65z m641 38 c0 -5 -10 -19 -21 -33 l-20 -25 16 33 c15
30 25 41 25 25z m-398 -72 c8 -11 40 -29 71 -41 51 -19 75 -40 46 -40 -23 0
-213 42 -228 50 -12 6 -8 12 20 29 43 26 74 27 91 2z m-701 -11 c89 -17 74
-25 -49 -25 -77 -1 -137 -6 -177 -17 l-60 -17 27 24 c17 14 47 26 75 30 27 4
53 8 58 10 20 7 74 5 126 -5z m1074 -80 c-3 -5 -17 -10 -31 -10 -14 0 -22 4
-19 10 3 6 17 10 31 10 14 0 22 -4 19 -10z m-1086 -16 c10 -9 -10 -12 -134
-17 -130 -6 -150 3 -52 23 38 8 176 3 186 -6z m100 -77 c41 -13 70 -27 64 -30
-6 -4 -30 0 -54 9 -81 29 -207 44 -288 33 -40 -6 -85 -15 -99 -20 -13 -5 -27
-7 -29 -5 -4 4 44 20 122 40 49 12 212 -3 284 -27z m1288 -3 c-3 -3 -12 -4
-19 -1 -8 3 -5 6 6 6 11 1 17 -2 13 -5z m-1584 -285 c70 -11 173 -43 191 -60
5 -4 -27 4 -70 18 -62 20 -106 27 -204 31 -76 3 -117 8 -105 13 29 11 106 11
188 -2z m-70 -46 c-29 -2 -78 -2 -110 0 -32 2 -8 3 52 3 61 0 87 -1 58 -3z
m-176 -9 c-3 -3 -12 -4 -19 -1 -8 3 -5 6 6 6 11 1 17 -2 13 -5z m322 -10 c76
-22 59 -25 -24 -4 -38 11 -61 19 -49 19 11 1 44 -6 73 -15z m-57 -9 c68 -14
138 -44 106 -45 -9 0 -18 -5 -20 -11 -3 -9 -17 -9 -53 -1 -92 19 -189 24 -270
13 -72 -10 -81 -10 -92 6 -16 21 -14 23 44 39 64 17 203 17 285 -1z m-894 -21
c15 -4 22 -14 22 -30 0 -13 -2 -24 -5 -24 -8 0 -85 50 -85 55 0 7 40 6 68 -1z
m1042 -4 c8 -5 11 -10 5 -10 -5 0 -17 5 -25 10 -8 5 -10 10 -5 10 6 0 17 -5
25 -10z m-2213 -582 c-2 -13 -4 -5 -4 17 -1 22 1 32 4 23 2 -10 2 -28 0 -40z
m-12 -115 c-5 -37 -10 -60 -13 -49 -5 23 8 130 15 122 3 -3 2 -36 -2 -73z
m720 -50 c-6 -34 -47 -73 -74 -72 -11 0 -10 3 5 9 35 14 54 50 54 101 0 26 3
56 8 66 9 24 16 -59 7 -104z m-1189 -117 c38 -13 156 -58 262 -101 106 -43
195 -75 198 -73 2 3 -22 15 -56 28 -33 12 -58 26 -55 30 3 5 -3 6 -14 3 -10
-3 -21 -1 -24 4 -9 15 36 13 53 -2 8 -7 37 -23 63 -34 27 -12 46 -25 42 -30
-3 -5 -1 -12 5 -16 22 -14 10 -57 -25 -87 -19 -17 -32 -34 -30 -38 3 -4 -1 -7
-8 -6 -17 2 -445 -325 -452 -346 -3 -9 -11 -15 -18 -13 -10 4 -198 -134 -409
-300 -32 -25 -70 -51 -85 -57 -16 -7 -32 -19 -36 -26 -25 -39 -77 -87 -144
-132 -66 -44 -80 -50 -126 -49 l-52 0 42 14 c24 7 89 49 150 97 109 86 264
203 673 511 124 93 233 177 242 186 16 15 -3 16 -255 19 -149 2 -274 5 -278 7
-3 2 -87 5 -187 6 -174 1 -181 2 -159 18 18 15 209 150 526 373 30 21 62 38
71 38 9 0 48 -11 86 -24z m219 -55 c78 -36 87 -49 13 -20 -29 12 -63 25 -75
30 -24 9 -30 19 -13 19 6 0 40 -13 75 -29z m3050 -521 c3 -5 1 -10 -4 -10 -6
0 -11 5 -11 10 0 6 2 10 4 10 3 0 8 -4 11 -10z m-1251 -175 c3 -8 1 -15 -3
-15 -5 0 -11 7 -15 15 -3 8 -1 15 3 15 5 0 11 -7 15 -15z m-69 -5 c-16 -4 -46
-8 -65 -7 l-35 0 40 7 c22 4 51 7 65 7 22 1 22 0 -5 -7z m142 4 c-3 -3 -12 -4
-19 -1 -8 3 -5 6 6 6 11 1 17 -2 13 -5z m-2268 -43 c-13 -11 -26 -18 -28 -15
-2 2 7 12 20 23 13 11 26 18 28 15 2 -2 -7 -12 -20 -23z m1828 23 c-3 -3 -12
-4 -19 -1 -8 3 -5 6 6 6 11 1 17 -2 13 -5z m130 0 c-3 -3 -12 -4 -19 -1 -8 3
-5 6 6 6 11 1 17 -2 13 -5z m296 -1 c-7 -2 -19 -2 -25 0 -7 3 -2 5 12 5 14 0
19 -2 13 -5z m72 -25 c6 -4 2 -8 -7 -8 -10 0 -18 7 -18 17 0 9 3 12 8 7 4 -5
12 -12 17 -16z m965 12 c0 -5 -4 -10 -10 -10 -5 0 -10 5 -10 10 0 6 5 10 10
10 6 0 10 -4 10 -10z m-1003 -15 c0 -16 -22 -21 -32 -6 -3 5 3 12 12 14 10 3
18 5 19 6 0 0 1 -6 1 -14z m-480 -11 c-3 -3 -12 -4 -19 -1 -8 3 -5 6 6 6 11 1
17 -2 13 -5z m85 -19 c5 -22 2 -25 -26 -24 -30 1 -30 1 -6 10 17 6 5 7 -35 3
-33 -3 -67 -10 -75 -15 -10 -7 0 -8 30 -5 39 5 41 4 15 -4 -16 -6 -42 -7 -58
-4 -40 8 -114 -5 -96 -18 10 -7 6 -8 -14 -5 -15 2 -30 0 -33 -4 -8 -14 -24
-10 -19 4 6 14 49 25 198 53 53 10 97 22 97 26 0 19 18 6 22 -17z m223 15
c-11 -5 -27 -9 -35 -9 -9 0 -8 4 5 9 11 5 27 9 35 9 9 0 8 -4 -5 -9z m491 -17
c-10 -10 -19 5 -10 18 6 11 8 11 12 0 2 -7 1 -15 -2 -18z m154 23 c0 -3 -4 -8
-10 -11 -5 -3 -10 -1 -10 4 0 6 5 11 10 11 6 0 10 -2 10 -4z m-997 -13 c-7 -2
-19 -2 -25 0 -7 3 -2 5 12 5 14 0 19 -2 13 -5z m-55 -10 c-10 -2 -26 -2 -35 0
-10 3 -2 5 17 5 19 0 27 -2 18 -5z m325 0 c-7 -2 -19 -2 -25 0 -7 3 -2 5 12 5
14 0 19 -2 13 -5z m-433 -18 c-30 -8 -66 -14 -80 -13 -30 0 75 26 110 26 14 0
0 -6 -30 -13z m383 8 c-7 -2 -21 -2 -30 0 -10 3 -4 5 12 5 17 0 24 -2 18 -5z
m-523 -13 c-14 -4 -19 -8 -12 -9 7 -1 21 -8 30 -17 15 -15 14 -16 -8 -9 -44
14 -49 46 -7 44 20 -1 20 -2 -3 -9z m609 -4 c-2 -2 -29 -6 -59 -9 -36 -4 -46
-3 -30 3 25 8 97 13 89 6z m85 -5 c3 -5 0 -11 -7 -14 -8 -3 -14 1 -14 9 0 16
13 19 21 5z m-34 -11 c0 -5 -2 -10 -4 -10 -3 0 -8 5 -11 10 -3 6 -1 10 4 10 6
0 11 -4 11 -10z m-315 -9 c-3 -6 2 -14 11 -19 15 -8 15 -10 0 -15 -10 -4 -16
-1 -16 8 0 9 -10 15 -22 16 -22 1 -22 1 2 9 14 4 26 8 28 9 2 1 1 -3 -3 -8z
m285 -1 c13 -9 13 -10 -1 -10 -8 0 -26 -10 -39 -22 -18 -17 -37 -23 -84 -24
-77 -2 -76 -2 -76 -16 0 -9 3 -9 12 0 7 7 19 12 28 12 8 0 2 -7 -14 -15 -32
-17 -50 -19 -42 -6 3 5 -1 11 -9 15 -8 3 -15 1 -15 -4 0 -5 -9 -7 -20 -5 -11
2 -23 -2 -27 -9 -5 -7 -16 -15 -26 -19 -11 -4 -16 -3 -12 3 3 6 -1 7 -9 4 -9
-3 -13 -11 -9 -17 4 -6 1 -7 -7 -2 -10 6 -12 4 -6 -10 5 -15 4 -16 -9 -5 -17
14 -21 35 -5 25 6 -3 10 -1 10 4 0 13 -11 14 -25 3 -12 -8 -13 -22 -2 -39 4
-6 3 -14 -3 -18 -5 -3 -10 0 -11 7 0 10 -2 10 -6 1 -2 -7 -9 -13 -15 -13 -6 0
-3 11 6 25 22 33 8 32 -22 -2 -13 -16 -21 -22 -17 -15 3 6 2 12 -3 12 -6 0 -8
8 -5 19 5 18 91 47 140 45 12 0 19 4 16 9 -3 4 -11 6 -19 3 -7 -3 -16 0 -20 6
-5 7 8 9 40 5 33 -4 45 -3 40 5 -4 6 -3 8 4 4 6 -3 13 -2 17 4 3 5 12 10 18
10 7 0 6 -4 -3 -11 -12 -9 -12 -10 3 -5 10 3 28 6 40 7 21 0 21 1 2 9 -11 5
-14 9 -7 9 7 1 23 -4 34 -10 18 -10 20 -9 15 5 -4 9 -2 16 2 16 5 0 11 -5 13
-12 3 -8 9 -8 24 1 16 11 16 12 1 7 -10 -3 -16 -2 -13 3 3 5 27 6 52 3 34 -3
45 -2 40 7 -9 13 4 14 24 1z m-183 -6 c-3 -3 -12 -4 -19 -1 -8 3 -5 6 6 6 11
1 17 -2 13 -5z m-580 -10 c-3 -3 -12 -4 -19 -1 -8 3 -5 6 6 6 11 1 17 -2 13
-5z m113 3 c-9 -8 -90 -15 -90 -8 0 4 21 8 47 10 26 1 45 0 43 -2z m427 -3
c-3 -3 -12 -4 -19 -1 -8 3 -5 6 6 6 11 1 17 -2 13 -5z m1450 0 c-3 -3 -12 -4
-19 -1 -8 3 -5 6 6 6 11 1 17 -2 13 -5z m-1777 -14 c-8 -5 -31 -9 -50 -9 l-35
2 35 7 c19 4 42 8 50 9 13 1 13 0 0 -9z m-203 -6 c-3 -3 -12 -4 -19 -1 -8 3
-5 6 6 6 11 1 17 -2 13 -5z m-54 -11 c-7 -2 -21 -2 -30 0 -10 3 -4 5 12 5 17
0 24 -2 18 -5z m72 -13 c-11 -5 -36 -8 -55 -8 l-35 1 35 7 c19 4 44 8 55 8
l20 1 -20 -9z m272 4 c-3 -3 -12 -4 -19 -1 -8 3 -5 6 6 6 11 1 17 -2 13 -5z
m-50 -10 c-3 -3 -12 -4 -19 -1 -8 3 -5 6 6 6 11 1 17 -2 13 -5z m150 0 c-3 -3
-12 -4 -19 -1 -8 3 -5 6 6 6 11 1 17 -2 13 -5z m-494 -11 c-7 -2 -19 -2 -25 0
-7 3 -2 5 12 5 14 0 19 -2 13 -5z m275 0 c-10 -2 -18 -10 -18 -16 0 -7 -4 -6
-10 3 -8 13 -12 13 -32 1 -21 -13 -22 -13 -9 2 8 11 27 17 50 16 20 -1 28 -3
19 -6z m172 -3 c-8 -5 -22 -10 -30 -10 -13 0 -13 1 0 10 8 5 22 10 30 10 13 0
13 -1 0 -10z m-363 -6 c-3 -3 -12 -4 -19 -1 -8 3 -5 6 6 6 11 1 17 -2 13 -5z
m-70 -10 c-3 -3 -12 -4 -19 -1 -8 3 -5 6 6 6 11 1 17 -2 13 -5z m26 -37 c-7
-5 -21 -6 -31 -4 -12 3 -11 5 6 6 16 1 22 7 23 24 0 21 1 21 8 2 6 -13 4 -23
-6 -28z m97 29 c0 -2 -15 -6 -34 -8 -19 -2 -32 0 -30 4 5 8 64 12 64 4z m-127
-13 c-7 -2 -19 -2 -25 0 -7 3 -2 5 12 5 14 0 19 -2 13 -5z m287 -57 c0 -2 -7
-7 -16 -10 -8 -3 -12 -2 -9 4 6 10 25 14 25 6z m-2277 -173 c-7 -2 -19 -2 -25
0 -7 3 -2 5 12 5 14 0 19 -2 13 -5z m2477 -3 c0 -5 -4 -10 -10 -10 -5 0 -10 5
-10 10 0 6 5 10 10 10 6 0 10 -4 10 -10z m-165 -15 c-22 -8 -47 -12 -55 -9
-19 8 21 22 65 23 28 0 28 -1 -10 -14z m1542 -11 c-3 -3 -12 -4 -19 -1 -8 3
-5 6 6 6 11 1 17 -2 13 -5z m-50 -10 c-3 -3 -12 -4 -19 -1 -8 3 -5 6 6 6 11 1
17 -2 13 -5z m-210 -50 c-3 -3 -12 -4 -19 -1 -8 3 -5 6 6 6 11 1 17 -2 13 -5z
m-877 -114 c-14 -4 -32 -8 -40 -9 -13 -1 -13 0 0 9 8 5 26 9 40 9 l25 -1 -25
-8z m-145 -10 c26 6 35 5 35 -5 0 -8 -19 -15 -47 -20 -27 -3 -59 -9 -73 -11
l-25 -5 23 13 c12 8 19 18 15 23 -4 4 -3 5 4 1 6 -3 15 -1 19 6 5 8 9 8 11 1
3 -7 16 -8 38 -3z m80 0 c3 -5 -1 -10 -10 -10 -9 0 -13 5 -10 10 3 6 8 10 10
10 2 0 7 -4 10 -10z m-165 -9 c0 -5 -9 -13 -20 -16 -11 -4 -18 -10 -15 -14 2
-4 -21 -14 -53 -20 -31 -7 -66 -15 -77 -17 -16 -4 -21 0 -21 16 0 18 5 21 28
18 15 -3 29 0 30 4 2 5 30 15 63 22 33 8 61 14 63 15 1 0 2 -3 2 -8z m-196
-15 c-2 -6 -12 -12 -22 -13 -9 -1 -28 -5 -42 -9 -22 -7 -23 -6 -10 8 26 25 83
36 74 14z m603 -12 c-3 -3 -12 -4 -19 -1 -8 3 -5 6 6 6 11 1 17 -2 13 -5z
m-704 -11 c3 -5 -6 -9 -20 -10 -19 -1 -22 1 -12 8 17 11 26 11 32 2z m49 -44
c-11 -10 -174 -39 -183 -33 -5 3 -9 -1 -9 -8 0 -10 -2 -10 -9 1 -6 8 -16 11
-31 6 -18 -6 -20 -9 -9 -17 10 -7 5 -8 -14 -3 -21 4 -27 3 -21 -6 5 -9 2 -10
-9 -6 -10 3 -17 3 -17 -2 0 -11 -53 -19 -75 -11 -13 5 -4 10 31 20 27 7 54 16
59 20 17 12 83 31 121 35 19 2 37 5 39 7 2 1 33 3 69 3 36 0 62 -3 58 -6z
m-462 -89 c-20 -13 -40 -13 -40 0 0 6 12 10 28 10 21 0 24 -2 12 -10z"/>
<path d="M2330 5112 c0 -10 65 -42 84 -42 8 0 19 -7 26 -15 21 -25 47 -17 80
25 29 37 30 40 11 40 -12 0 -20 -6 -18 -12 3 -20 -49 -21 -100 -4 -51 18 -83
20 -83 8z"/>
<path d="M2850 5101 c0 -15 11 -19 68 -24 37 -4 128 -16 202 -28 113 -18 139
-26 163 -47 15 -14 27 -36 27 -49 0 -29 -5 -29 -47 3 -38 29 -54 27 -79 -11
-16 -24 -16 -27 0 -44 18 -20 93 -41 241 -66 50 -9 100 -18 113 -21 19 -4 29
7 68 67 25 39 43 73 41 76 -3 3 -38 10 -76 16 -39 6 -71 15 -71 19 0 12 20 20
58 23 20 2 40 4 45 4 11 1 9 61 -3 61 -5 0 -14 -9 -20 -20 -6 -11 -19 -20 -30
-20 -10 0 -20 -5 -22 -12 -9 -25 -148 -12 -234 21 -97 36 -279 71 -374 71 -62
0 -70 -2 -70 -19z"/>
<path d="M3193 5113 c15 -2 37 -2 50 0 12 2 0 4 -28 4 -27 0 -38 -2 -22 -4z"/>
<path d="M4580 5100 c0 -25 20 -27 21 -2 0 10 3 12 6 5 2 -7 11 -13 18 -13 7
0 15 -5 17 -10 2 -6 17 -13 33 -16 17 -3 34 -9 40 -15 5 -5 16 -9 25 -9 9 0
25 -10 36 -21 10 -12 29 -25 42 -30 14 -5 20 -14 16 -21 -4 -6 -3 -8 4 -4 6 3
14 1 19 -6 4 -7 15 -13 23 -13 8 0 16 -10 18 -22 2 -13 10 -23 18 -23 19 0 30
-30 14 -40 -8 -5 -9 -9 -1 -14 6 -4 11 -3 11 3 0 5 6 8 14 7 15 -2 52 -36 39
-36 -4 0 3 -6 17 -13 14 -7 25 -19 26 -27 1 -8 2 -20 2 -25 1 -6 19 -9 42 -7
l40 4 0 184 0 184 -270 0 c-263 0 -270 0 -270 -20z"/>
<path d="M2825 5011 c-9 -30 0 -39 57 -56 57 -16 88 -8 88 26 0 22 -34 39 -96
46 -36 5 -43 2 -49 -16z"/>
<path d="M4964 4788 c-4 -6 -3 -8 4 -4 6 3 17 0 25 -9 13 -13 16 -13 27 0 7 8
11 16 9 16 -24 7 -60 5 -65 -3z"/>
<path d="M1891 4521 c-21 -39 -9 -67 24 -55 11 5 15 16 13 37 -4 37 -23 46
-37 18z"/>
<path d="M2060 4489 c0 -5 5 -7 10 -4 6 3 10 8 10 11 0 2 -4 4 -10 4 -5 0 -10
-5 -10 -11z"/>
<path d="M0 4278 l0 -80 28 17 c57 37 103 78 95 85 -4 4 -34 19 -65 33 l-58
26 0 -81z"/>
<path d="M115 4254 c-16 -15 -45 -40 -64 -56 l-33 -30 37 -33 c25 -21 34 -35
26 -39 -12 -8 -6 -26 8 -26 23 0 201 133 201 150 0 8 -119 60 -135 60 -5 0
-23 -12 -40 -26z"/>
<path d="M224 4129 c-80 -71 -89 -81 -86 -109 3 -31 3 -31 -21 -16 -22 15 -37
13 -37 -6 0 -4 25 -24 56 -44 65 -42 88 -40 131 8 15 18 42 39 58 46 31 14
168 112 163 117 -2 2 -42 21 -89 42 l-85 40 -90 -78z"/>
<path d="M3 4046 c0 -44 0 -44 24 -29 28 19 30 49 4 63 -28 14 -28 15 -28 -34z"/>
<path d="M0 3866 c0 -34 56 -58 97 -41 17 7 34 18 38 25 6 9 3 9 -12 2 -15 -8
-31 -5 -71 13 l-52 24 0 -23z"/>
<path d="M2680 3051 c-40 -6 -90 -26 -90 -35 0 -6 141 31 148 38 3 3 1 5 -4 5
-5 -1 -29 -5 -54 -8z"/>
<path d="M1988 2988 c-27 -6 -48 -15 -48 -20 0 -6 6 -8 14 -5 8 3 33 11 55 17
23 6 41 13 41 15 0 6 0 6 -62 -7z"/>
<path d="M2635 2721 c-3 -5 6 -40 21 -78 14 -37 26 -76 26 -85 -1 -26 15 -31
49 -18 34 15 33 37 -1 32 -20 -3 -22 -2 -12 11 11 12 7 27 -20 81 -30 62 -49
79 -63 57z"/>
<path d="M2862 2648 c-19 -19 -14 -25 16 -26 36 0 45 7 31 24 -14 17 -31 18
-47 2z"/>
<path d="M3742 2630 c0 -14 2 -19 5 -12 2 6 2 18 0 25 -3 6 -5 1 -5 -13z"/>
<path d="M2236 2562 c-8 -13 33 -74 47 -69 20 6 19 31 -3 55 -22 23 -35 27
-44 14z"/>
<path d="M3780 2499 c0 -5 -4 -8 -9 -4 -5 3 -12 1 -15 -4 -4 -5 2 -8 11 -6 10
2 26 4 36 4 24 1 22 21 -3 21 -11 0 -20 -5 -20 -11z"/>
<path d="M1242 2475 c0 -16 2 -22 5 -12 2 9 2 23 0 30 -3 6 -5 -1 -5 -18z"/>
<path d="M2383 2493 c-7 -2 -13 -9 -13 -15 0 -12 50 -2 65 13 10 10 -30 12
-52 2z"/>
<path d="M3168 2493 c7 -3 16 -2 19 1 4 3 -2 6 -13 5 -11 0 -14 -3 -6 -6z"/>
<path d="M2320 2474 c0 -9 7 -14 17 -12 25 5 28 28 4 28 -12 0 -21 -6 -21 -16z"/>
<path d="M2256 2471 c-22 -8 -11 -18 18 -17 11 1 21 7 23 14 5 13 -12 15 -41
3z"/>
<path d="M1251 2424 c0 -11 3 -14 6 -6 3 7 2 16 -1 19 -3 4 -6 -2 -5 -13z"/>
<path d="M1271 2354 c0 -11 3 -14 6 -6 3 7 2 16 -1 19 -3 4 -6 -2 -5 -13z"/>
<path d="M1281 2314 c0 -11 3 -14 6 -6 3 7 2 16 -1 19 -3 4 -6 -2 -5 -13z"/>
<path d="M2307 2229 c7 -7 15 -10 18 -7 3 3 -2 9 -12 12 -14 6 -15 5 -6 -5z"/>
<path d="M1977 2178 c2 -5 -8 -6 -24 -3 l-28 6 30 -14 c25 -12 31 -12 33 0 2
7 8 11 13 8 5 -4 9 -2 9 4 0 5 -9 9 -19 8 -11 0 -17 -5 -14 -9z"/>
<path d="M1965 2129 c-4 -6 -5 -12 -2 -15 2 -3 7 2 10 11 7 17 1 20 -8 4z"/>
<path d="M2330 1925 c-36 -8 -81 -14 -101 -14 -19 -1 -44 -8 -55 -16 -19 -14
-19 -14 3 -15 12 0 24 4 27 9 3 4 29 9 58 10 50 1 119 19 134 34 4 4 5 7 3 6
-2 -1 -33 -7 -69 -14z"/>
<path d="M4623 1900 c-13 -5 -23 -12 -23 -16 0 -15 35 -64 46 -64 7 0 15 -6
17 -12 4 -10 6 -10 6 0 1 8 19 -9 41 -37 38 -47 80 -70 130 -71 8 0 22 -5 30
-11 11 -7 -14 -8 -85 -4 -89 5 -104 4 -132 -14 -17 -11 -33 -30 -35 -43 -2
-12 -10 -24 -19 -26 -13 -2 -15 3 -12 22 5 25 -12 61 -79 168 -27 43 -31 46
-54 36 -13 -6 -33 -31 -44 -57 -46 -102 -56 -114 -115 -154 -33 -23 -65 -46
-71 -51 -6 -6 -30 -27 -54 -46 -71 -56 -241 -200 -291 -244 -25 -23 -57 -51
-72 -64 -28 -23 -86 -75 -242 -217 -96 -87 -236 -211 -324 -285 -30 -25 -59
-50 -65 -55 -31 -29 -167 -144 -205 -175 -25 -19 -88 -73 -142 -120 -53 -47
-130 -112 -170 -145 -41 -33 -105 -90 -144 -126 -38 -36 -79 -71 -90 -77 -15
-9 325 -11 1338 -12 l1357 0 0 653 0 652 -38 -42 c-20 -22 -59 -56 -87 -73
-27 -18 -66 -49 -85 -69 -20 -20 -47 -45 -60 -55 -21 -16 -62 -52 -151 -132
-9 -8 -22 -14 -30 -14 -8 0 -32 -21 -54 -46 -22 -25 -57 -54 -77 -65 -21 -11
-38 -25 -38 -32 0 -6 -26 -32 -57 -57 -31 -25 -68 -58 -83 -73 l-27 -28 -56
23 c-32 13 -55 28 -54 33 2 6 8 10 13 10 14 1 55 25 77 46 10 9 32 23 48 29
16 7 29 19 29 26 0 8 10 14 23 14 13 0 36 14 53 31 16 17 53 46 83 66 30 20
77 59 106 87 139 136 215 207 275 257 35 30 74 63 85 74 11 11 39 33 63 49
l42 29 -2 206 -3 206 -135 37 c-116 33 -293 69 -325 67 -5 0 -20 -4 -32 -9z
m328 -446 l24 -26 -30 4 c-22 2 -31 9 -33 26 -4 29 9 28 39 -4z"/>
<path d="M2095 1890 l-20 -9 20 0 c11 0 27 4 35 9 13 9 13 10 0 9 -8 0 -24 -4
-35 -9z"/>
<path d="M2018 1873 c6 -2 18 -2 25 0 6 3 1 5 -13 5 -14 0 -19 -2 -12 -5z"/>
<path d="M2124 1801 c6 -9 -45 -31 -74 -31 -9 0 -25 -6 -36 -14 -18 -14 -16
-14 16 -11 61 6 204 33 234 45 46 17 25 20 -34 5 -64 -17 -83 -19 -76 -6 3 5
-1 12 -10 15 -22 8 -26 8 -20 -3z"/>
<path d="M1975 1710 c-13 -6 -15 -9 -5 -9 8 0 22 4 30 9 18 12 2 12 -25 0z"/>
<path d="M0 1382 c0 -201 3 -263 13 -266 6 -2 84 -16 172 -31 88 -15 170 -29
183 -31 33 -7 59 -37 73 -86 15 -57 -8 -194 -51 -298 -80 -194 -153 -276 -289
-324 -45 -16 -84 -26 -87 -23 -12 11 8 27 34 27 35 0 106 42 177 103 46 40 64
66 100 144 25 53 43 98 40 101 -2 2 -16 -10 -31 -27 -36 -43 -61 -56 -80 -40
-8 6 -14 22 -14 34 0 12 -16 54 -35 93 -36 72 -99 139 -170 181 l-35 20 0
-354 c0 -309 2 -355 15 -355 11 0 15 -12 15 -50 0 -38 -4 -50 -15 -50 -12 0
-15 -15 -15 -75 l0 -75 923 0 c875 0 921 1 901 18 -23 18 -202 174 -484 422
-97 85 -194 171 -217 190 -22 19 -130 116 -239 215 -109 99 -234 211 -278 249
-45 38 -124 108 -176 155 -52 48 -131 118 -175 156 -43 39 -119 108 -167 155
l-88 85 0 -263z m108 -1194 c7 -7 12 -34 12 -60 0 -45 1 -47 19 -36 17 11 18
14 4 35 -17 25 -12 29 18 13 27 -15 24 -54 -6 -74 -40 -26 -65 -13 -65 33 0
21 -3 53 -6 70 -7 32 3 40 24 19z"/>
</g>
</svg>
